<svg id="bf644434-d0b6-4613-aff5-750234030aea" data-name="Layer 1" xmlns="http://www.w3.org/2000/svg" width="100" height="100" viewBox="0 0 100 100"><title>icons</title><rect x="38.71" y="74.73" width="22.75" height="12.33" fill="#ef8c23"/><path d="M73.69,75.55H26.31a5,5,0,0,1-5-5V27.36a5,5,0,0,1,5-5H73.69a5,5,0,0,1,5,5V70.53A5,5,0,0,1,73.69,75.55ZM26.31,24.35a3,3,0,0,0-3,3V70.53a3,3,0,0,0,3,3H73.69a3,3,0,0,0,3-3V27.36a3,3,0,0,0-3-3Z" fill="#2c333a"/><path d="M62.36,88H37.81V73.83H62.36ZM39.61,86.16h21V75.62h-21Z" fill="#2c333a"/><path d="M57.64,96.4H42.36V86.35H57.64Zm-13.28-2H55.64V88.35H44.36Z" fill="#2c333a"/><path d="M38.94,1.49h0a2.37,2.37,0,0,1,2.37,2.37V23.3a0,0,0,0,1,0,0H36.57a0,0,0,0,1,0,0V3.86a2.37,2.37,0,0,1,2.37-2.37Z" fill="#ef8c23"/><path d="M61.12,1.49h0a2.37,2.37,0,0,1,2.37,2.37V23.3a0,0,0,0,1,0,0H58.75a0,0,0,0,1,0,0V3.86a2.37,2.37,0,0,1,2.37-2.37Z" fill="#ef8c23"/><path d="M42.21,24.19H35.68V3.86a3.27,3.27,0,0,1,6.53,0ZM37.47,22.4h3V3.86a1.48,1.48,0,0,0-3,0Z" fill="#2c333a"/><path d="M64.38,24.19H57.85V3.86a3.27,3.27,0,0,1,6.53,0ZM59.64,22.4h3V3.86a1.48,1.48,0,0,0-3,0Z" fill="#2c333a"/><rect x="48.81" y="95.35" width="1.79" height="4.06" fill="#2c333a"/></svg>