<svg id="be7ea572-1f68-44d1-8dbb-f5840a3e39a9" data-name="Layer 1" xmlns="http://www.w3.org/2000/svg" width="100" height="100" viewBox="0 0 100 100"><title>icons</title><polygon points="23.68 13.9 67.62 37.46 77.5 32.79 33.74 8.79 23.68 13.9" fill="#ef8c23"/><path d="M67.59,38.58,22.47,14.31,34.71,8.08,79.56,32.7ZM25.84,13.93,67.65,36.34l7.66-3.62L33.72,9.92Z" fill="#2c333a"/><polygon points="49.05 99.71 2.23 77.71 1.34 24.3 1.78 24.31 3.08 25.09 3.9 76.63 47.39 97.06 47.87 46.33 49.56 46.34 49.05 99.71" fill="#2c333a"/><polygon points="49.05 99.71 48.37 98.16 96.17 77.45 96.96 24.41 98.65 23.6 97.85 78.56 49.05 99.71" fill="#2c333a"/><path d="M48.94,47.51,1.34,24.3,50.15.29,98.66,23.6ZM5.18,24.29,49,45.63l45.81-22L50.16,2.17Z" fill="#2c333a"/><polyline points="67.62 37.46 66.92 49.2 72.03 43.81 76.89 44.79 77 33.2" fill="#ef8c23"/><polyline points="67.62 37.46 66.92 49.2 72.03 43.81 76.89 44.79 77 33.2" fill="#ef8c23"/><polygon points="65.75 51.87 66.63 37.4 68.62 36.4 68.08 46.52 71.69 42.73 75.9 43.57 76 33.19 78 33.21 77.88 46 72.38 44.9 65.75 51.87" fill="#2c333a"/></svg>