<svg id="b267ab1f-b5c7-432e-a1ca-554e4ca30186" data-name="Layer 1" xmlns="http://www.w3.org/2000/svg" width="100" height="100" viewBox="0 0 100 100"><title>icons</title><rect x="13.97" y="15.65" width="51.29" height="3.53" rx="1.76" fill="#ef8c23"/><path d="M63.5,20.18H15.74a2.77,2.77,0,1,1,0-5.53H63.5a2.77,2.77,0,0,1,0,5.53ZM15.74,16.65a.76.76,0,0,0-.77.76.77.77,0,0,0,.77.77H63.5a.77.77,0,0,0,.76-.77.76.76,0,0,0-.76-.76Z" fill="#2c333a"/><rect x="13.97" y="25.29" width="51.29" height="3.53" rx="1.76" fill="#ef8c23"/><path d="M63.5,29.82H15.74a2.77,2.77,0,1,1,0-5.53H63.5a2.77,2.77,0,0,1,0,5.53ZM15.74,26.29a.77.77,0,0,0-.77.77.76.76,0,0,0,.77.76H63.5a.76.76,0,0,0,.76-.76.77.77,0,0,0-.76-.77Z" fill="#2c333a"/><rect x="13.97" y="34.94" width="51.29" height="3.53" rx="1.76" fill="#ef8c23"/><path d="M63.5,39.47H15.74a2.77,2.77,0,1,1,0-5.53H63.5a2.77,2.77,0,0,1,0,5.53ZM15.74,35.94a.77.77,0,1,0,0,1.53H63.5a.77.77,0,0,0,0-1.53Z" fill="#2c333a"/><rect x="13.97" y="44.59" width="51.29" height="3.53" rx="1.76" fill="#ef8c23"/><path d="M63.5,49.12H15.74a2.77,2.77,0,1,1,0-5.53H63.5a2.77,2.77,0,0,1,0,5.53ZM15.74,45.59a.76.76,0,0,0-.77.76.77.77,0,0,0,.77.77H63.5a.77.77,0,0,0,.76-.77.76.76,0,0,0-.76-.76Z" fill="#2c333a"/><path d="M65.23,90.27l-3.44,3.32a1.47,1.47,0,0,1-2,0L56.2,90.16a1.47,1.47,0,0,0-2,0l-3.55,3.43a1.45,1.45,0,0,1-2,0L45,90.16a1.47,1.47,0,0,0-2,0l-3.55,3.43a1.45,1.45,0,0,1-2,0l-3.55-3.43a1.47,1.47,0,0,0-2,0L28.3,93.59a1.45,1.45,0,0,1-2,0l-3.55-3.43a1.47,1.47,0,0,0-2,0l-3.54,3.43a1.47,1.47,0,0,1-2,0l-2.1-2a1.45,1.45,0,0,0-2.08,0L6.64,96.11l1.43,1.4,3.08-3.28a1.46,1.46,0,0,1,2.08,0L15.11,96a1.47,1.47,0,0,0,2,0l3.54-3.43a1.45,1.45,0,0,1,2,0L26.27,96a1.45,1.45,0,0,0,2,0l3.55-3.43a1.45,1.45,0,0,1,2,0L37.43,96a1.45,1.45,0,0,0,2,0L43,92.57a1.45,1.45,0,0,1,2,0L48.59,96a1.45,1.45,0,0,0,2,0l3.55-3.43a1.45,1.45,0,0,1,2,0L59.75,96a1.47,1.47,0,0,0,2,0l3.41-3.3a1.47,1.47,0,0,1,2.16.14l3.72,4.66,1.2-1.25-4.92-5.87A1.45,1.45,0,0,0,65.23,90.27Z" fill="#2c3439"/><path d="M93.93,24.75H72.63v-2h19.3v-8.1A10.17,10.17,0,0,0,81.77,4.5h-1.9v-2h1.9A12.17,12.17,0,0,1,93.93,14.65Z" fill="#2c3439"/><polyline points="73.07 77.41 73.08 97.51 71.08 97.51 71.08 77.29" fill="#2c3439"/><path d="M71.15,49.21l-.08-26.63.06-1.6a26.38,26.38,0,0,1,6.58-16.5H18.58A10.49,10.49,0,0,0,8.07,14.92V97.51h-2V14.92A12.49,12.49,0,0,1,18.58,2.49h64L80.74,4.2a24.43,24.43,0,0,0-7.61,16.86l-.06,1.56.08,26.59" fill="#2c3439"/><circle cx="71.53" cy="64.35" r="14.82" fill="#ef8c23"/><path d="M71.53,80A15.63,15.63,0,1,1,87.16,64.35,15.65,15.65,0,0,1,71.53,80Zm0-29.64a14,14,0,1,0,14,14A14,14,0,0,0,71.53,50.34Z" fill="#2c333a"/><path d="M72.18,55.05H77a.23.23,0,0,1,.16,0l-.93,1.47c-.05.08-.11.07-.17.07H73.54c-.06,0-.11,0-.17,0,.12.16.25.3.36.46a2.3,2.3,0,0,1,.5,1.15c0,.1.08.07.13.07l2,0H77s.09,0,.11,0l-.91,1.4a.23.23,0,0,1-.23.13l-1.66,0c-.07,0-.13,0-.14.1A4.18,4.18,0,0,1,72,63a7.3,7.3,0,0,1-2.64.85l-.16,0-.05,0,6,7.68a.13.13,0,0,1-.11,0H72.57a.22.22,0,0,1-.2-.1l-5.8-7.31a.35.35,0,0,1-.09-.25c0-.41,0-.82,0-1.22,0-.13,0-.14.15-.13a10.6,10.6,0,0,0,2.7-.1A3,3,0,0,0,72,59.94c0-.12-.06-.09-.1-.09H70.25l-4.11,0h-.08s0-.08,0-.11c.28-.47.56-.94.83-1.41a.21.21,0,0,1,.22-.12l4.45.07h.17a2.2,2.2,0,0,0-.81-.92,4,4,0,0,0-1.58-.56,18.88,18.88,0,0,0-3.28-.12h-.17L67,55.06h5.17Z" fill="#2c333a"/></svg>