<?xml version="1.0" standalone="no"?>
<!DOCTYPE svg PUBLIC "-//W3C//DTD SVG 20010904//EN"
 "http://www.w3.org/TR/2001/REC-SVG-20010904/DTD/svg10.dtd">
<svg version="1.0" xmlns="http://www.w3.org/2000/svg"
 width="466.000000pt" height="466.000000pt" viewBox="0 0 466.000000 466.000000"
 preserveAspectRatio="xMidYMid meet">
<metadata>
Created by potrace 1.11, written by Peter Selinger 2001-2013
</metadata>
<g transform="translate(0.000000,466.000000) scale(0.100000,-0.100000)"
fill="#000000" stroke="none">
<path d="M481 4645 c-185 -41 -341 -166 -422 -338 -62 -133 -59 -32 -58 -1982
0 -1717 1 -1783 19 -1853 58 -222 223 -385 446 -442 75 -19 116 -20 1446 -20
l1368 0 0 310 c0 171 -1 313 -2 318 -2 4 -7 6 -12 4 -5 -2 -424 -3 -931 -2
-999 1 -987 0 -1080 55 -58 34 -132 117 -163 183 l-27 57 -3 862 -2 863 462
-383 c671 -554 780 -642 789 -640 8 3 776 619 922 740 l48 40 2 152 c1 83 0
151 -3 151 -9 0 -35 -20 -26 -20 14 0 -15 -30 -30 -30 -8 0 -22 -6 -31 -14
-103 -81 -800 -639 -835 -669 -42 -35 -50 -38 -65 -26 -10 8 -83 68 -163 134
-80 67 -353 293 -607 504 l-463 383 0 175 c0 167 1 175 18 161 351 -298 1225
-1009 1235 -1005 19 7 849 676 950 764 20 18 33 33 27 33 -6 0 -10 54 -10 144
0 113 3 146 15 156 8 6 18 9 23 6 5 -3 9 1 9 8 0 8 -9 11 -24 8 -12 -2 -20 -8
-17 -13 3 -5 0 -9 -6 -9 -17 0 -100 -66 -93 -74 3 -3 0 -6 -8 -6 -13 0 -41
-20 -102 -75 -15 -14 -29 -25 -32 -25 -3 0 -13 -6 -22 -14 -10 -8 -175 -141
-367 -296 -347 -279 -349 -280 -370 -262 -18 17 -836 695 -1123 932 l-103 84
0 174 c0 124 3 171 11 166 10 -6 945 -776 1134 -934 44 -37 86 -70 92 -74 11
-6 531 403 881 692 l102 85 0 439 0 438 -1367 -1 c-1125 0 -1379 -3 -1432 -14z"/>
<path d="M3336 2764 c-23 -23 -20 -30 4 -9 11 10 20 20 20 22 0 7 -9 2 -24
-13z"/>
<path d="M2255 1141 c-141 -64 -146 -261 -9 -326 49 -23 143 -17 182 12 71 52
97 141 64 214 -45 102 -143 143 -237 100z"/>
<path d="M3304 648 c-3 -4 4 -8 15 -8 11 0 22 4 26 9 3 6 -4 9 -16 8 -11 -1
-23 -5 -25 -9z"/>
</g>
</svg>
